<svg width="177" height="129" viewBox="0 0 177 129" fill="none" xmlns="http://www.w3.org/2000/svg">
<path d="M130.004 53.296C131.079 53.3134 132.145 53.4856 133.17 53.8073C130.811 39.4384 123.638 26.298 112.828 16.5421C102.018 6.78631 88.2125 0.994431 73.6776 0.116788C59.1427 -0.760854 44.7412 3.32786 32.8358 11.7121C20.9304 20.0963 12.2283 32.2781 8.15723 46.2588H14.2934C18.3423 33.9596 26.3613 23.3534 37.0912 16.1055C47.8212 8.85755 60.6544 5.37845 73.5759 6.21443C86.4974 7.05041 98.7753 12.1541 108.482 20.7242C118.188 29.2943 124.774 40.8454 127.204 53.5638C128.122 53.3513 129.063 53.2612 130.004 53.296Z" fill="white"/>
<path d="M130.005 72.0947C128.491 72.0996 127.011 71.6552 125.75 70.818C124.49 69.9808 123.506 68.7884 122.923 67.3917C122.341 65.9951 122.186 64.457 122.478 62.9722C122.77 61.4874 123.497 60.1228 124.565 59.0511C125.633 57.9793 126.996 57.2487 128.48 56.9517C129.963 56.6547 131.502 56.8047 132.9 57.3827C134.299 57.9606 135.495 58.9406 136.336 60.1985C137.177 61.4564 137.626 62.9356 137.626 64.4489C137.629 65.4518 137.434 66.4455 137.053 67.373C136.671 68.3005 136.11 69.1435 135.402 69.8538C134.694 70.5642 133.853 71.1277 132.927 71.5123C132.001 71.8968 131.007 72.0948 130.005 72.0947ZM130.005 51.3242C127.409 51.3242 124.871 52.094 122.713 53.5361C120.555 54.9783 118.872 57.0281 117.879 59.4263C116.886 61.8245 116.626 64.4634 117.132 67.0093C117.638 69.5553 118.888 71.8939 120.724 73.7294C122.56 75.5649 124.898 76.8149 127.444 77.3213C129.99 77.8277 132.629 77.5678 135.027 76.5744C137.425 75.5811 139.475 73.8988 140.917 71.7405C142.359 69.5822 143.129 67.0447 143.129 64.4489C143.129 60.968 141.746 57.6297 139.285 55.1683C136.824 52.707 133.485 51.3242 130.005 51.3242Z" fill="white"/>
<path d="M7.96244 56.534H0V51.8345H21.6958V56.534H13.7334V76.7201H7.96244V56.534Z" fill="white"/>
<path d="M49.0167 72.118V76.7201H29.7559V51.8345H48.554V56.461H35.4781V61.8667H47.0443V66.3471H35.4781V72.118H49.0167Z" fill="white"/>
<path d="M74.1704 52.9551C75.6884 53.5857 76.991 54.643 77.9203 55.9989C78.81 57.4675 79.2804 59.1518 79.2804 60.8689C79.2804 62.5859 78.81 64.2702 77.9203 65.7388C77.015 67.1337 75.7073 68.2207 74.1704 68.8556C72.3549 69.6265 70.3956 70.0001 68.4238 69.9514H63.4321V76.7937H57.6611V51.835H68.4238C70.3973 51.794 72.3568 52.1759 74.1704 52.9551ZM72.052 64.0587C72.5088 63.6673 72.8693 63.176 73.1058 62.6228C73.3423 62.0697 73.4482 61.4695 73.4156 60.8689C73.4483 60.2646 73.3425 59.6608 73.1062 59.1038C72.8698 58.5467 72.5092 58.051 72.052 57.6547C70.9243 56.856 69.5602 56.4613 68.1803 56.5346H63.4321V65.1788H68.1803C69.5615 65.2638 70.9295 64.8681 72.052 64.0587Z" fill="white"/>
<path d="M98.0087 66.7123H94.0396V76.7201H88.3174V51.8345H94.0396V61.9154H98.1548L104.705 51.8345H110.768L102.635 63.8634L111.012 76.7201H104.486L98.0087 66.7123Z" fill="white"/>
<path d="M177 51.8345V76.7201H171.253V66.5175H159.955V76.7201H154.184V51.8345H159.955V61.5745H171.253V51.8345H177Z" fill="white"/>
<path d="M130.004 73.9206C129.18 73.9059 128.362 73.7831 127.569 73.5554C125.493 86.4913 119.13 98.3542 109.502 107.24C99.8738 116.125 87.5393 121.517 74.4787 122.551C61.418 123.585 48.3889 120.199 37.4831 112.939C26.5773 105.679 18.4274 94.9644 14.3421 82.5162H8.23022C12.3999 96.5774 21.254 108.789 33.3223 117.123C45.3906 125.458 59.9467 129.413 74.5732 128.332C89.1997 127.251 103.016 121.2 113.729 111.182C124.441 101.165 131.404 87.7845 133.462 73.2632C132.36 73.6937 131.188 73.9166 130.004 73.9206Z" fill="white"/>
</svg>
