<svg width="100" height="72" viewBox="0 0 100 72" fill="none" xmlns="http://www.w3.org/2000/svg">
<path d="M73.4486 29.8608C74.0555 29.8705 74.6579 29.967 75.237 30.1473C73.9041 22.0966 69.8515 14.7343 63.7441 9.26826C57.6368 3.80225 49.8374 0.557162 41.6256 0.0654342C33.4138 -0.426293 25.2773 1.86454 18.5511 6.56208C11.8249 11.2596 6.90844 18.0849 4.6084 25.918H8.07517C10.3627 19.027 14.8932 13.0845 20.9553 9.0236C27.0174 4.96273 34.2678 3.01345 41.5681 3.48183C48.8683 3.95022 55.805 6.80974 61.289 11.6114C66.7729 16.4131 70.4935 22.885 71.8666 30.0108C72.3849 29.8918 72.9169 29.8413 73.4486 29.8608Z" fill="#164194"/>
<path d="M73.4492 40.393C72.5943 40.3957 71.7578 40.1467 71.0456 39.6776C70.3334 39.2086 69.7776 38.5405 69.4485 37.7579C69.1195 36.9754 69.032 36.1137 69.1971 35.2818C69.3622 34.4499 69.7725 33.6853 70.3761 33.0848C70.9797 32.4844 71.7493 32.075 72.5877 31.9086C73.426 31.7422 74.2952 31.8262 75.0854 32.1501C75.8755 32.4739 76.5509 33.0229 77.0262 33.7277C77.5015 34.4325 77.7552 35.2613 77.7552 36.1091C77.757 36.671 77.6469 37.2278 77.4314 37.7474C77.2158 38.2671 76.8989 38.7395 76.4989 39.1374C76.0988 39.5354 75.6235 39.8512 75.1002 40.0666C74.5769 40.2821 74.0158 40.393 73.4492 40.393ZM73.4492 28.7556C71.9827 28.7556 70.549 29.1869 69.3296 29.9949C68.1103 30.8029 67.1598 31.9514 66.5986 33.2951C66.0374 34.6387 65.8906 36.1173 66.1767 37.5437C66.4628 38.9701 67.169 40.2804 68.206 41.3088C69.243 42.3372 70.5642 43.0376 72.0026 43.3213C73.441 43.6051 74.9319 43.4594 76.2868 42.9029C77.6418 42.3463 78.7998 41.4038 79.6146 40.1945C80.4294 38.9852 80.8643 37.5635 80.8643 36.1091C80.8643 34.1588 80.083 32.2885 78.6925 30.9094C77.3019 29.5304 75.4158 28.7556 73.4492 28.7556Z" fill="#E30613"/>
<path d="M4.49855 31.6754H0V29.0424H12.2575V31.6754H7.75897V42.9854H4.49855V31.6754Z" fill="#164194"/>
<path d="M27.6924 40.4067V42.9852H16.8105V29.0422H27.431V31.6344H20.0434V34.6631H26.578V37.1734H20.0434V40.4067H27.6924Z" fill="#164194"/>
<path d="M41.9034 29.6698C42.7611 30.0231 43.497 30.6154 44.022 31.3751C44.5247 32.198 44.7904 33.1416 44.7904 34.1037C44.7904 35.0657 44.5247 36.0094 44.022 36.8323C43.5106 37.6138 42.7717 38.2228 41.9034 38.5786C40.8777 39.0104 39.7708 39.2198 38.6568 39.1925H35.8366V43.0261H32.5762V29.0422H38.6568C39.7718 29.0192 40.8788 29.2332 41.9034 29.6698ZM40.7066 35.8909C40.9647 35.6716 41.1684 35.3963 41.302 35.0864C41.4356 34.7765 41.4954 34.4402 41.477 34.1037C41.4955 33.7651 41.4357 33.4269 41.3022 33.1147C41.1687 32.8026 40.9649 32.5249 40.7066 32.3028C40.0695 31.8554 39.2988 31.6343 38.5192 31.6753H35.8366V36.5185H38.5192C39.2995 36.5661 40.0724 36.3444 40.7066 35.8909Z" fill="#164194"/>
<path d="M55.3718 37.378H53.1294V42.9852H49.8965V29.0422H53.1294V34.6904H55.4543L59.155 29.0422H62.5805L57.9856 35.7818L62.718 42.9852H59.0312L55.3718 37.378Z" fill="#164194"/>
<path d="M99.9997 29.0422V42.9852H96.7531V37.2689H90.3698V42.9852H87.1094V29.0422H90.3698V34.4994H96.7531V29.0422H99.9997Z" fill="#164194"/>
<path d="M73.4484 41.4162C72.9827 41.408 72.5202 41.3392 72.0726 41.2116C70.8995 48.4593 67.3046 55.1059 61.865 60.0842C56.4254 65.0625 49.4568 68.0838 42.0779 68.6629C34.699 69.242 27.3379 67.3454 21.1764 63.2776C15.015 59.2097 10.4105 53.2067 8.10243 46.2321H4.64941C7.00514 54.1104 12.0075 60.9524 18.8257 65.6219C25.6439 70.2915 33.8677 72.5075 42.1313 71.902C50.3949 71.2965 58.2009 67.9059 64.2531 62.2933C70.3052 56.6807 74.2393 49.1839 75.4019 41.0479C74.7792 41.2891 74.1169 41.4139 73.4484 41.4162Z" fill="#E30613"/>
</svg>
